<svg width="21" height="20" viewBox="0 0 21 20" fill="none" xmlns="http://www.w3.org/2000/svg">
<path d="M9.58633 11.8L7.41133 9.625C7.22799 9.44167 7.00299 9.35 6.73633 9.35C6.46966 9.35 6.23633 9.45 6.03633 9.65C5.85299 9.83333 5.76133 10.0667 5.76133 10.35C5.76133 10.6333 5.85299 10.8667 6.03633 11.05L8.88633 13.9C9.06966 14.0833 9.303 14.175 9.58633 14.175C9.86966 14.175 10.103 14.0833 10.2863 13.9L15.9613 8.225C16.1447 8.04167 16.2363 7.81667 16.2363 7.55C16.2363 7.28333 16.1363 7.05 15.9363 6.85C15.753 6.66667 15.5197 6.575 15.2363 6.575C14.953 6.575 14.7197 6.66667 14.5363 6.85L9.58633 11.8ZM10.9863 20C9.60299 20 8.303 19.7373 7.08633 19.212C5.86966 18.6873 4.81133 17.975 3.91133 17.075C3.01133 16.175 2.29899 15.1167 1.77433 13.9C1.24899 12.6833 0.986328 11.3833 0.986328 10C0.986328 8.61667 1.24899 7.31667 1.77433 6.1C2.29899 4.88333 3.01133 3.825 3.91133 2.925C4.81133 2.025 5.86966 1.31233 7.08633 0.787C8.303 0.262333 9.60299 0 10.9863 0C12.3697 0 13.6697 0.262333 14.8863 0.787C16.103 1.31233 17.1613 2.025 18.0613 2.925C18.9613 3.825 19.6737 4.88333 20.1983 6.1C20.7237 7.31667 20.9863 8.61667 20.9863 10C20.9863 11.3833 20.7237 12.6833 20.1983 13.9C19.6737 15.1167 18.9613 16.175 18.0613 17.075C17.1613 17.975 16.103 18.6873 14.8863 19.212C13.6697 19.7373 12.3697 20 10.9863 20Z" fill="#00C714"/>
</svg>
